<svg xmlns="http://www.w3.org/2000/svg" version="1.1" xmlns:xlink="http://www.w3.org/1999/xlink" xmlns:svgjs="http://svgjs.dev/svgjs" width="1000" height="1000"><style>
    #light-icon {
      display: inline;
    }
    #dark-icon {
      display: none;
    }

    @media (prefers-color-scheme: dark) {
      #light-icon {
        display: none;
      }
      #dark-icon {
        display: inline;
      }
    }
  </style><g id="light-icon"><svg xmlns="http://www.w3.org/2000/svg" version="1.1" xmlns:xlink="http://www.w3.org/1999/xlink" xmlns:svgjs="http://svgjs.dev/svgjs" width="1000" height="1000"><g clip-path="url(#SvgjsClipPath1263)"><rect width="1000" height="1000" fill="#252525"></rect><g transform="matrix(29.166666666666668,0,0,29.166666666666668,150,150)"><svg xmlns="http://www.w3.org/2000/svg" version="1.1" xmlns:xlink="http://www.w3.org/1999/xlink" xmlns:svgjs="http://svgjs.dev/svgjs" width="24" height="24"><svg xmlns="http://www.w3.org/2000/svg" width="24" height="24" viewBox="0 0 24 24"><g fill="none" stroke="#fff" stroke-linecap="round" stroke-linejoin="round" stroke-width="2"><path d="M3.85 8.62a4 4 0 0 1 4.78-4.77a4 4 0 0 1 6.74 0a4 4 0 0 1 4.78 4.78a4 4 0 0 1 0 6.74a4 4 0 0 1-4.77 4.78a4 4 0 0 1-6.75 0a4 4 0 0 1-4.78-4.77a4 4 0 0 1 0-6.76"></path><path d="m9 12l2 2l4-4"></path></g></svg></svg></g></g><defs><clipPath id="SvgjsClipPath1263"><rect width="1000" height="1000" x="0" y="0" rx="500" ry="500"></rect></clipPath></defs></svg></g><g id="dark-icon"><svg xmlns="http://www.w3.org/2000/svg" version="1.1" xmlns:xlink="http://www.w3.org/1999/xlink" xmlns:svgjs="http://svgjs.dev/svgjs" width="1000" height="1000"><g clip-path="url(#SvgjsClipPath1264)"><rect width="1000" height="1000" fill="#f4eded"></rect><g transform="matrix(29.166666666666668,0,0,29.166666666666668,150,150)"><svg xmlns="http://www.w3.org/2000/svg" version="1.1" xmlns:xlink="http://www.w3.org/1999/xlink" xmlns:svgjs="http://svgjs.dev/svgjs" width="24" height="24"><svg xmlns="http://www.w3.org/2000/svg" width="24" height="24" viewBox="0 0 24 24"><g fill="none" stroke="#000" stroke-linecap="round" stroke-linejoin="round" stroke-width="2"><path d="M3.85 8.62a4 4 0 0 1 4.78-4.77a4 4 0 0 1 6.74 0a4 4 0 0 1 4.78 4.78a4 4 0 0 1 0 6.74a4 4 0 0 1-4.77 4.78a4 4 0 0 1-6.75 0a4 4 0 0 1-4.78-4.77a4 4 0 0 1 0-6.76"></path><path d="m9 12l2 2l4-4"></path></g></svg></svg></g></g><defs><clipPath id="SvgjsClipPath1264"><rect width="1000" height="1000" x="0" y="0" rx="500" ry="500"></rect></clipPath></defs></svg></g></svg>